<?xml version="1.0" standalone="no"?><!DOCTYPE svg PUBLIC "-//W3C//DTD SVG 1.1//EN" "http://www.w3.org/Graphics/SVG/1.1/DTD/svg11.dtd"><svg t="1496826469058" class="icon" style="" viewBox="0 0 1024 1024" version="1.1" xmlns="http://www.w3.org/2000/svg" p-id="5457" xmlns:xlink="http://www.w3.org/1999/xlink" width="32" height="32"><defs><style type="text/css"></style></defs><path d="M858.484 403.554c-13.774-13.802-32.154-21.403-51.718-21.403l-523.401-0.743c3.174-65.768 15.844-148.95 67.278-205.617 46.601-51.406 88.337-67.907 171.759-67.907 116.416 0 198.211 58.655 243.111 174.336 4.995 12.871 19.478 19.255 32.352 14.26 12.872-4.996 19.256-19.48 14.26-32.352C759.755 129.202 659.57 57.884 522.402 57.884c-97.724 0-152.364 22.066-208.793 84.314-62.481 68.839-76.932 164.903-80.295 239.139l-14.755-0.021c-40.145 0-74.06 33.434-74.06 73.009l0 399.52c0 39.851 32.666 72.271 72.818 72.271l589.363 0c40.152 0 72.818-32.421 72.818-72.271L879.498 454.38C879.537 435.22 872.074 417.17 858.484 403.554zM829.5 853.845c0 12.28-10.236 22.271-22.818 22.271L217.318 876.116c-12.582 0-22.818-9.991-22.818-22.271l0-399.52c0-12.042 11.468-23.009 24.024-23.009l588.207 0.835c6.225 0 12.036 2.388 16.363 6.724 4.142 4.15 6.417 9.622 6.405 15.456L829.499 853.845z" p-id="5458" fill="#ffffff"></path><path d="M512 548.698c-13.807 0-25 11.193-25 25l0 160.035c0 13.807 11.193 25 25 25 13.807 0 25-11.193 25-25L537 573.698C537 559.892 525.807 548.698 512 548.698z" p-id="5459" fill="#ffffff"></path></svg>