<svg xmlns="http://www.w3.org/2000/svg" xmlns:xlink="http://www.w3.org/1999/xlink"><defs><style>
    .sprite-symbol-usage {display: none;}
    .sprite-symbol-usage:target {display: inline;}
  </style><symbol class="icon" viewBox="0 0 1024 1024" id="lock"><defs></defs><path fill="#fff" d="M858.484 403.554c-13.774-13.802-32.154-21.403-51.718-21.403l-523.401-.743c3.174-65.768 15.844-148.95 67.278-205.617 46.601-51.406 88.337-67.907 171.759-67.907 116.416 0 198.211 58.655 243.111 174.336 4.995 12.871 19.478 19.255 32.352 14.26 12.872-4.996 19.256-19.48 14.26-32.352C759.755 129.202 659.57 57.884 522.402 57.884c-97.724 0-152.364 22.066-208.793 84.314-62.481 68.839-76.932 164.903-80.295 239.139l-14.755-.021c-40.145 0-74.06 33.434-74.06 73.009v399.52c0 39.851 32.666 72.271 72.818 72.271H806.68c40.152 0 72.818-32.421 72.818-72.271V454.38c.039-19.16-7.424-37.21-21.014-50.826zM829.5 853.845c0 12.28-10.236 22.271-22.818 22.271H217.318c-12.582 0-22.818-9.991-22.818-22.271v-399.52c0-12.042 11.468-23.009 24.024-23.009l588.207.835c6.225 0 12.036 2.388 16.363 6.724 4.142 4.15 6.417 9.622 6.405 15.456v399.514z" /><path fill="#fff" d="M512 548.698c-13.807 0-25 11.193-25 25v160.035c0 13.807 11.193 25 25 25s25-11.193 25-25V573.698c0-13.806-11.193-25-25-25z" /></symbol><symbol class="icon" viewBox="0 0 1024 1024" id="login-man"><defs></defs><path fill="#fff" d="M772.016 696.022c-39.228-39.23-85.763-68.498-136.53-86.546 26.775-13.283 51.5-30.976 73.254-52.73 52.552-52.55 81.494-122.422 81.494-196.74s-28.94-144.19-81.494-196.743C656.19 110.713 586.318 81.77 512 81.77s-144.19 28.943-196.742 81.493c-52.552 52.551-81.494 122.423-81.494 196.742s28.94 144.19 81.494 196.741c21.753 21.754 46.48 39.447 73.256 52.73-50.77 18.05-97.303 47.317-136.533 86.546-66.188 66.188-104.01 153.167-107.422 246.209h48.73c3.388-80.029 36.14-154.784 93.13-211.77 55.771-55.772 128.558-88.327 206.65-92.868 6.274.419 12.583.646 18.93.646 6.345 0 12.656-.227 18.929-.646 78.091 4.54 150.88 37.096 206.65 92.868 56.988 56.986 89.742 131.741 93.13 211.77h48.73c-3.41-93.042-41.233-180.021-107.422-246.209zm-489.55-336.018c0-126.564 102.969-229.533 229.535-229.533 126.564 0 229.533 102.969 229.533 229.533 0 120.305-93.04 219.28-210.942 228.776a376.698 376.698 0 0 0-37.184 0c-117.902-9.496-210.941-108.47-210.941-228.776z" /></symbol></defs><use id="lock-usage" xlink:href="#lock" class="sprite-symbol-usage" /><use id="login-man-usage" xlink:href="#login-man" class="sprite-symbol-usage" /></svg>